<?xml version="1.0" standalone="no"?><!DOCTYPE svg PUBLIC "-//W3C//DTD SVG 1.1//EN" "http://www.w3.org/Graphics/SVG/1.1/DTD/svg11.dtd"><svg t="1743224341198" class="icon" viewBox="0 0 1025 1024" version="1.1" xmlns="http://www.w3.org/2000/svg" p-id="7053" xmlns:xlink="http://www.w3.org/1999/xlink" width="200.1953125" height="200"><path d="M896 256l0-128-896 0 0 704c0 35.34848 28.65152 64 64 64l864.01024 0c53.02272 0 96.01024-42.98752 96.01024-96.01024l0-544.01024-128 0zM832 832l-768 0 0-640 768 0 0 640zM128 320l640 0 0 64-640 0zM512 448l256 0 0 64-256 0zM512 576l256 0 0 64-256 0zM512 704l192 0 0 64-192 0zM128 448l320 0 0 320-320 0z" fill="#444444" p-id="7054"></path></svg>