<?xml version="1.0" standalone="no"?><!DOCTYPE svg PUBLIC "-//W3C//DTD SVG 1.1//EN" "http://www.w3.org/Graphics/SVG/1.1/DTD/svg11.dtd"><svg t="1743224108603" class="icon" viewBox="0 0 1024 1024" version="1.1" xmlns="http://www.w3.org/2000/svg" p-id="2542" xmlns:xlink="http://www.w3.org/1999/xlink" width="200" height="200"><path d="M99.555556 99.555556m170.666666 0l483.555556 0q170.666667 0 170.666666 170.666666l0 483.555556q0 170.666667-170.666666 170.666666l-483.555556 0q-170.666667 0-170.666666-170.666666l0-483.555556q0-170.666667 170.666666-170.666666Z" fill="#E4DCD5" p-id="2543"></path><path d="M99.555556 99.555556m170.666666 0l483.555556 0q170.666667 0 170.666666 170.666666l0 469.333334q0 170.666667-170.666666 170.666666l-483.555556 0q-170.666667 0-170.666666-170.666666l0-469.333334q0-170.666667 170.666666-170.666666Z" fill="#FEF6EE" p-id="2544"></path><path d="M99.555556 99.555556m170.666666 0l483.555556 0q170.666667 0 170.666666 170.666666l0 455.111111q0 170.666667-170.666666 170.666667l-483.555556 0q-170.666667 0-170.666666-170.666667l0-455.111111q0-170.666667 170.666666-170.666666Z" fill="#E4DCD5" p-id="2545"></path><path d="M99.555556 99.555556m170.666666 0l483.555556 0q170.666667 0 170.666666 170.666666l0 440.888889q0 170.666667-170.666666 170.666667l-483.555556 0q-170.666667 0-170.666666-170.666667l0-440.888889q0-170.666667 170.666666-170.666666Z" fill="#FEF6EE" p-id="2546"></path><path d="M99.555556 99.555556m170.666666 0l483.555556 0q170.666667 0 170.666666 170.666666l0 426.666667q0 170.666667-170.666666 170.666667l-483.555556 0q-170.666667 0-170.666666-170.666667l0-426.666667q0-170.666667 170.666666-170.666666Z" fill="#E4DCD5" p-id="2547"></path><path d="M99.555556 99.555556m170.666666 0l483.555556 0q170.666667 0 170.666666 170.666666l0 412.444445q0 170.666667-170.666666 170.666666l-483.555556 0q-170.666667 0-170.666666-170.666666l0-412.444445q0-170.666667 170.666666-170.666666Z" fill="#FFF6EE" p-id="2548"></path><path d="M99.555556 99.555556m170.666666 0l483.555556 0q170.666667 0 170.666666 170.666666l0 398.222222q0 170.666667-170.666666 170.666667l-483.555556 0q-170.666667 0-170.666666-170.666667l0-398.222222q0-170.666667 170.666666-170.666666Z" fill="#E4DCD5" p-id="2549"></path><path d="M99.555556 99.555556m170.666666 0l483.555556 0q170.666667 0 170.666666 170.666666l0 384q0 170.666667-170.666666 170.666667l-483.555556 0q-170.666667 0-170.666666-170.666667l0-384q0-170.666667 170.666666-170.666666Z" fill="#FFF6EE" p-id="2550"></path><path d="M234.666667 277.333333m-35.555556 0a35.555556 35.555556 0 1 0 71.111111 0 35.555556 35.555556 0 1 0-71.111111 0Z" fill="#4B556A" p-id="2551"></path><path d="M327.111111 284.444444m14.222222 0l256 0q14.222222 0 14.222223 14.222223l0 0q0 14.222222-14.222223 14.222222l-256 0q-14.222222 0-14.222222-14.222222l0 0q0-14.222222 14.222222-14.222223Z" fill="#FF6400" p-id="2552"></path><path d="M327.111111 384m14.222222 0l469.333334 0q14.222222 0 14.222222 14.222222l0 0q0 14.222222-14.222222 14.222222l-469.333334 0q-14.222222 0-14.222222-14.222222l0 0q0-14.222222 14.222222-14.222222Z" fill="#FF6400" p-id="2553"></path><path d="M327.111111 483.555556m14.222222 0l469.333334 0q14.222222 0 14.222222 14.222222l0 0q0 14.222222-14.222222 14.222222l-469.333334 0q-14.222222 0-14.222222-14.222222l0 0q0-14.222222 14.222222-14.222222Z" fill="#FF6400" p-id="2554"></path><path d="M327.111111 583.111111m14.222222 0l469.333334 0q14.222222 0 14.222222 14.222222l0 0q0 14.222222-14.222222 14.222223l-469.333334 0q-14.222222 0-14.222222-14.222223l0 0q0-14.222222 14.222222-14.222222Z" fill="#FF6400" p-id="2555"></path><path d="M234.666667 448m-35.555556 0a35.555556 35.555556 0 1 0 71.111111 0 35.555556 35.555556 0 1 0-71.111111 0Z" fill="#4B556A" p-id="2556"></path><path d="M234.666667 604.444444m-35.555556 0a35.555556 35.555556 0 1 0 71.111111 0 35.555556 35.555556 0 1 0-71.111111 0Z" fill="#4B556A" p-id="2557"></path><path d="M583.111111 99.555556h227.555556a113.777778 113.777778 0 0 1 113.777777 113.777777v227.555556L583.111111 99.555556z" fill="#F3ECE3" p-id="2558"></path><path d="M924.444444 440.888889l-246.257777-41.045333A113.777778 113.777778 0 0 1 583.111111 287.616V99.555556l341.333333 341.333333z" fill="#CCC6C2" p-id="2559"></path><path d="M896 412.444444l-224.327111-50.986666a113.777778 113.777778 0 0 1-88.561778-110.933334V99.555556l312.888889 312.888888z" fill="#E4DCD5" p-id="2560"></path></svg>